<?xml version="1.0" encoding="UTF-8" standalone="no"?>
<!DOCTYPE svg PUBLIC "-//W3C//DTD SVG 1.1//EN" "http://www.w3.org/Graphics/SVG/1.1/DTD/svg11.dtd">
<svg width="100%" height="100%" viewBox="0 0 108 108" version="1.1" xmlns="http://www.w3.org/2000/svg" xmlns:xlink="http://www.w3.org/1999/xlink" xml:space="preserve" xmlns:serif="http://www.serif.com/" style="fill-rule:evenodd;clip-rule:evenodd;stroke-linejoin:round;stroke-miterlimit:2;">
    <g transform="matrix(1,0,0,1,-1288.03,-93)">
        <g transform="matrix(0.294571,0,0,0.280676,1162.47,-8.23605)">
            <g transform="matrix(0.330635,0,0,0.34556,430.697,365.371)">
                <rect x="-13.479" y="-13.556" width="1108.88" height="1113.51" style="fill:rgb(26,26,26);"/>
            </g>
        </g>
        <g transform="matrix(0.294571,0,0,0.280676,1162.47,-8.23605)">
            <g transform="matrix(0.176496,0,0,0.185233,194.222,413.139)">
                <path d="M1912.72,472.955C1905.09,460.603 1907.3,435.345 1907.3,435.345C1931.43,501.207 1948.98,491.588 1948.98,491.588C1917.17,466.729 1916.08,427.977 1923.75,392.881C1931.43,357.785 1898.53,350.839 1898.53,350.839C1924.85,314.647 1965.32,359.979 1965.32,359.979C1957.28,328.539 1987.26,326.711 2020.26,282.841C2053.26,238.971 2031.49,210.821 2006.36,198.757C1981.24,186.693 1952.89,215.94 1965.32,230.197C1977.75,244.455 1978.21,233.606 1978.21,233.606C1983.43,210.693 2016.5,234.219 1993.1,247.833C1969.71,261.447 1944.48,236.778 1952.26,204.972C1960.03,173.166 2006.36,179.381 2006.36,179.381C1987.35,152.694 1998.69,128.2 2012.94,119.426C2027.2,110.652 2063.39,127.103 2056.08,150.135C2048.77,173.166 2035.25,171.86 2024.28,166.01C2013.31,160.161 2023.55,143.71 2030.86,155.774C2038.17,167.838 2049.14,155.774 2049.14,155.774C2053.89,132.377 2027.93,126.893 2027.93,126.893C1980.41,126.527 2049.14,214.198 2049.14,214.198C2105.8,294.556 2040.36,379.046 2040.36,379.046C2110.92,307.293 2078.75,214.198 2078.75,214.198C2139.07,262.454 2099.22,340.722 2099.22,340.722C2117.87,322.476 2129.2,292.831 2120.06,269.799C2110.92,246.767 2120.06,233.606 2120.06,233.606C2117.87,240.918 2119.69,244.939 2127.01,257.735C2134.32,270.53 2135.41,286.981 2135.41,286.981C2142.36,275.648 2135.41,252.982 2135.41,252.982C2107.26,171.457 2141.85,139.228 2141.85,139.228C2131.1,196.2 2151.87,165.915 2156.47,247.833C2161.08,329.751 2056.08,379.046 2056.08,379.046C1942.39,455.421 1978.21,545.02 1978.21,545.02C1978.21,537.708 1972,511.387 2020.26,449.603C2068.51,387.82 2152.38,400.615 2152.38,400.615C2214.31,418.529 2224.62,410.12 2224.62,410.12C2214.74,417.798 2193.18,435.345 2141.85,427.668C2090.52,419.991 2064.49,428.765 2073.63,427.668C2082.77,426.572 2103.61,432.055 2110.19,435.345C2116.77,438.636 2135.41,435.345 2135.41,435.345C2125.91,444.485 2104.34,441.195 2104.34,441.195C2128.1,458.012 2127.01,483.237 2127.01,483.237C2127.01,537.343 2078.75,513.214 2078.75,513.214C2141.63,528.569 2122.98,423.647 2061.57,464.226C2000.15,504.806 2020.26,582.675 2020.26,582.675C2020.26,546.117 2061.57,531.494 2061.57,531.494C2059.01,542.827 2055.35,549.407 2065.22,569.514C2075.09,589.621 2057.03,657.473 2065.22,632.614C2073.41,607.754 2109.97,581.432 2141.85,595.763C2173.73,610.094 2165.25,644.605 2156.47,654.256C2147.7,663.907 2141.85,659.228 2141.85,659.228C2149.74,661.86 2155.01,639.048 2141.85,629.689C2128.69,620.33 2115.82,642.881 2115.82,642.881C2099.46,677.727 2116.07,723.507 2135.89,759.548C2134.09,751.733 2132.79,743.421 2132.5,735.082C2198.41,808.353 2295.89,856.027 2412.76,856.027C2490.33,856.027 2542.05,850.15 2583.19,809.013C2605.52,786.681 2619.58,744.369 2623.08,725.564C2625.41,714.986 2626.58,711.371 2633.59,711.371C2638.28,711.371 2642.98,718.512 2642.98,725.564C2642.98,732.616 2628.92,819.591 2618.41,853.676C2612.57,872.429 2610.22,875.944 2592.59,882.973C2550.28,899.376 2472.7,905.234 2405.71,905.234C2253.45,905.234 2149.87,870.26 2069.41,802.35C2083.55,800.729 2106.37,798.583 2124.98,799.028C2109.38,793.99 2092.67,789.551 2078.75,788.079C2040.72,784.058 2012.22,765.779 2027.93,769.8C2043.64,773.821 2084.24,774.553 2084.24,774.553C2069.26,758.467 2049.14,761.026 2049.14,761.026C1997.21,766.875 1988.46,749.693 1988.46,749.693C2002.35,758.833 2060.26,751.705 2056.08,749.693C2052.96,748.187 2073.64,735.801 1981.88,738.36C1890.12,740.919 1879.88,706.189 1879.88,706.189C1890.85,714.963 1901.82,723.006 1948.98,709.845C1996.14,696.684 2044.76,728.855 2040.36,724.468C2035.96,720.081 2006.74,692.662 1981.88,680.964C1957.02,669.265 1937.28,618.084 1944.23,582.675C1951.17,547.267 1919.37,507.312 1898.53,545.02C1877.69,582.728 1916.08,585.181 1914.61,589.203C1913.15,593.224 1880.98,610.041 1867.82,557.762C1854.66,505.484 1923.75,496.707 1923.75,496.707C1912.06,491.223 1868.55,462.707 1867.82,419.934C1867.09,377.161 1848.08,375.699 1853.56,375.699C1859.05,375.699 1875.5,370.946 1884.64,410.12C1892.11,442.133 1907.39,465.488 1912.72,472.955C1913.3,473.883 1913.92,474.737 1914.61,475.503C1914.61,475.503 1913.92,474.627 1912.72,472.955ZM2150.08,164.885C2205.49,139.13 2276.68,122.769 2370.44,122.769C2411.58,122.769 2470.35,126.282 2520.89,134.478C2559.68,141.504 2592.59,148.529 2626.58,149.7C2637.1,149.7 2639.45,154.383 2639.45,160.238C2639.45,168.451 2637.1,180.204 2634.75,216.64C2633.59,249.55 2633.59,304.791 2632.42,318.895C2631.25,334.174 2626.58,340.129 2620.75,340.129C2613.74,340.129 2612.57,332.999 2612.57,318.895C2612.57,280.109 2596.12,240.147 2569.09,218.991C2532.65,188.432 2457.42,163.751 2365.74,163.751C2261.65,163.751 2200.15,185.406 2160.87,211.186C2155.74,200.835 2149.65,184.332 2150.08,164.885Z" style="fill:rgb(242,242,242);"/>
            </g>
        </g>
        <g transform="matrix(0.294571,0,0,0.280676,1162.47,-8.23605)">
            <g transform="matrix(0.159959,0,0,0.157595,408.349,437.242)">
                <g transform="matrix(416.667,0,0,416.667,644.048,1282.16)">
                    <path d="M0.328,-0.24C0.314,-0.164 0.285,-0.089 0.235,-0.089C0.158,-0.089 0.119,-0.243 0.119,-0.355C0.119,-0.446 0.151,-0.622 0.235,-0.622C0.283,-0.622 0.313,-0.549 0.328,-0.471L0.425,-0.488C0.401,-0.618 0.339,-0.72 0.235,-0.72C0.096,-0.72 0.021,-0.542 0.021,-0.355C0.021,-0.168 0.096,0.009 0.235,0.009C0.339,0.009 0.401,-0.092 0.425,-0.223L0.328,-0.24Z" style="fill:rgb(242,242,242);fill-rule:nonzero;"/>
                </g>
                <g transform="matrix(416.667,0,0,416.667,825.298,1282.16)">
                    <path d="M0,-0L0.099,-0L0.118,-0.078L0.327,-0.078L0.346,-0L0.447,-0L0.271,-0.711L0.176,-0.711L0,-0ZM0.144,-0.176L0.223,-0.528L0.303,-0.176L0.144,-0.176Z" style="fill:rgb(242,242,242);fill-rule:nonzero;"/>
                </g>
                <g transform="matrix(416.667,0,0,416.667,1011.55,1282.16)">
                    <path d="M0.056,-0L0.154,-0L0.154,-0.176L0.236,-0.176L0.313,-0L0.419,-0L0.328,-0.209C0.388,-0.256 0.419,-0.35 0.419,-0.443C0.419,-0.577 0.356,-0.711 0.235,-0.711L0.056,-0.711L0.056,-0ZM0.154,-0.273L0.154,-0.613L0.229,-0.613C0.29,-0.613 0.322,-0.528 0.322,-0.443C0.322,-0.358 0.292,-0.273 0.233,-0.273L0.154,-0.273Z" style="fill:rgb(242,242,242);fill-rule:nonzero;"/>
                </g>
                <g transform="matrix(416.667,0,0,416.667,1193.63,1282.16)">
                    <path d="M0.163,-0L0.277,-0L0.438,-0.711L0.338,-0.711L0.219,-0.178L0.102,-0.711L0,-0.711L0.163,-0Z" style="fill:rgb(242,242,242);fill-rule:nonzero;"/>
                </g>
                <g transform="matrix(416.667,0,0,416.667,1376.13,1282.16)">
                    <rect x="0.056" y="-0.711" width="0.099" height="0.711" style="fill:rgb(242,242,242);fill-rule:nonzero;"/>
                </g>
                <g transform="matrix(416.667,0,0,416.667,1464.05,1282.16)">
                    <path d="M0.056,-0L0.152,-0L0.152,-0.498L0.345,-0L0.451,-0L0.451,-0.711L0.356,-0.711L0.356,-0.216L0.162,-0.711L0.056,-0.711L0.056,-0Z" style="fill:rgb(242,242,242);fill-rule:nonzero;"/>
                </g>
                <g transform="matrix(416.667,0,0,416.667,1675.3,1282.16)">
                    <path d="M0.447,-0.39L0.278,-0.39L0.278,-0.292L0.352,-0.292C0.336,-0.171 0.292,-0.087 0.236,-0.087C0.168,-0.087 0.119,-0.207 0.119,-0.354C0.119,-0.481 0.16,-0.622 0.236,-0.622C0.279,-0.622 0.31,-0.577 0.329,-0.516L0.421,-0.545C0.387,-0.647 0.325,-0.72 0.236,-0.72C0.097,-0.72 0.021,-0.543 0.021,-0.355C0.021,-0.169 0.097,0.009 0.236,0.009C0.375,0.009 0.448,-0.167 0.448,-0.354C0.448,-0.366 0.447,-0.378 0.447,-0.39Z" style="fill:rgb(242,242,242);fill-rule:nonzero;"/>
                </g>
            </g>
        </g>
        <g transform="matrix(0.294571,0,0,0.280676,1162.47,-8.23605)">
            <g transform="matrix(0.159959,0,0,0.157595,259.453,433.092)">
                <g transform="matrix(233.333,0,0,233.333,1568.04,1507.89)">
                    <path d="M0.626,-0.11C0.564,-0.029 0.481,0.012 0.376,0.012C0.274,0.012 0.197,-0.026 0.143,-0.103C0.09,-0.179 0.063,-0.275 0.063,-0.389C0.063,-0.503 0.092,-0.597 0.15,-0.672C0.208,-0.748 0.287,-0.785 0.386,-0.785C0.479,-0.785 0.551,-0.757 0.601,-0.7L0.547,-0.644C0.507,-0.691 0.452,-0.715 0.383,-0.715C0.315,-0.715 0.26,-0.687 0.216,-0.631C0.173,-0.575 0.151,-0.499 0.151,-0.402C0.151,-0.303 0.171,-0.221 0.213,-0.156C0.254,-0.091 0.31,-0.058 0.381,-0.058C0.458,-0.058 0.522,-0.091 0.574,-0.156L0.626,-0.11Z" style="fill:rgb(242,242,242);fill-rule:nonzero;"/>
                </g>
                <g transform="matrix(233.333,0,0,233.333,1764.76,1507.89)">
                    <path d="M0.156,-0.765L0.156,-0.3C0.156,-0.197 0.174,-0.131 0.209,-0.103C0.244,-0.075 0.293,-0.061 0.356,-0.061C0.425,-0.061 0.476,-0.075 0.511,-0.103C0.546,-0.131 0.563,-0.196 0.563,-0.297L0.563,-0.765L0.646,-0.765L0.646,-0.303C0.646,-0.176 0.621,-0.092 0.571,-0.05C0.521,-0.009 0.447,0.012 0.351,0.012C0.257,0.012 0.187,-0.009 0.141,-0.052C0.096,-0.094 0.073,-0.177 0.073,-0.301L0.073,-0.765L0.156,-0.765Z" style="fill:rgb(242,242,242);fill-rule:nonzero;"/>
                </g>
                <g transform="matrix(233.333,0,0,233.333,1974.58,1507.89)">
                    <path d="M0.501,-0L0.073,-0L0.073,-0.765L0.156,-0.765L0.156,-0.067L0.501,-0.067L0.501,-0Z" style="fill:rgb(242,242,242);fill-rule:nonzero;"/>
                </g>
                <g transform="matrix(233.333,0,0,233.333,2108.41,1507.89)">
                    <path d="M0.573,-0.695L0.335,-0.695L0.335,-0L0.252,-0L0.252,-0.695L0.016,-0.695L0.016,-0.765L0.573,-0.765L0.573,-0.695Z" style="fill:rgb(242,242,242);fill-rule:nonzero;"/>
                </g>
                <g transform="matrix(233.333,0,0,233.333,2287.81,1507.89)">
                    <path d="M0.156,-0.765L0.156,-0.3C0.156,-0.197 0.174,-0.131 0.209,-0.103C0.244,-0.075 0.293,-0.061 0.356,-0.061C0.425,-0.061 0.476,-0.075 0.511,-0.103C0.546,-0.131 0.563,-0.196 0.563,-0.297L0.563,-0.765L0.646,-0.765L0.646,-0.303C0.646,-0.176 0.621,-0.092 0.571,-0.05C0.521,-0.009 0.447,0.012 0.351,0.012C0.257,0.012 0.187,-0.009 0.141,-0.052C0.096,-0.094 0.073,-0.177 0.073,-0.301L0.073,-0.765L0.156,-0.765Z" style="fill:rgb(242,242,242);fill-rule:nonzero;"/>
                </g>
                <g transform="matrix(233.333,0,0,233.333,2497.64,1507.89)">
                    <path d="M0.156,-0.389L0.236,-0.389C0.301,-0.389 0.352,-0.404 0.387,-0.434C0.423,-0.463 0.441,-0.501 0.441,-0.548C0.441,-0.601 0.426,-0.64 0.396,-0.664C0.366,-0.687 0.317,-0.699 0.249,-0.699L0.156,-0.699L0.156,-0.389ZM0.156,-0L0.073,-0L0.073,-0.765L0.281,-0.765C0.362,-0.765 0.423,-0.746 0.464,-0.707C0.506,-0.669 0.526,-0.616 0.526,-0.55C0.526,-0.501 0.51,-0.458 0.478,-0.42C0.446,-0.382 0.409,-0.357 0.368,-0.344L0.582,-0L0.483,-0L0.286,-0.328C0.281,-0.327 0.238,-0.327 0.156,-0.326L0.156,-0Z" style="fill:rgb(242,242,242);fill-rule:nonzero;"/>
                </g>
                <g transform="matrix(233.333,0,0,233.333,2677.72,1507.89)">
                    <path d="M0.482,-0.698L0.156,-0.698L0.156,-0.437L0.416,-0.437L0.416,-0.373L0.156,-0.373L0.156,-0.067L0.497,-0.067L0.497,-0L0.073,-0L0.073,-0.765L0.482,-0.765L0.482,-0.698Z" style="fill:rgb(242,242,242);fill-rule:nonzero;"/>
                </g>
            </g>
        </g>
    </g>
</svg>
